<svg width="106" height="103" viewBox="0 0 106 103" fill="none" xmlns="http://www.w3.org/2000/svg">
<path d="M26.1401 62.5755C24.8324 61.0309 23.0987 59.9111 21.1582 59.3576C19.2178 58.804 17.1578 58.8417 15.2386 59.4659C13.3195 60.09 11.6274 61.2725 10.3765 62.8639C9.12549 64.4553 8.37177 66.3841 8.21061 68.4064C8.04946 70.4286 8.48811 72.4536 9.47109 74.2251C10.4541 75.9966 11.9372 77.4351 13.733 78.3588C15.5288 79.2824 17.5566 79.6497 19.5599 79.4141C21.5632 79.1786 23.4521 78.3508 24.9877 77.0355" stroke="#F6F6F6" stroke-width="8"/>
<path d="M23.291 59.2104C21.6132 60.6475 21.4102 63.1793 22.8377 64.8653C24.2651 66.5514 26.7824 66.7531 28.4602 65.316L23.291 59.2104ZM28.4602 65.316L37.156 57.8675L31.9868 51.7618L23.291 59.2104L28.4602 65.316Z" fill="#F6F6F6"/>
<path d="M40.6422 65.7821C25.6382 48.0601 38.5852 50.9206 38.5403 39.8527C38.48 24.9729 48.3267 19.7381 53.4008 15.0363" stroke="#F6F6F6" stroke-width="8"/>
<path d="M39.0992 77.8822C40.3546 79.365 41.1264 81.2046 41.3171 83.1682C41.5078 85.1319 41.1087 87.1315 40.1704 88.9141C39.2321 90.6968 37.7967 92.1824 36.0457 93.1832C34.2947 94.184 32.3068 94.655 30.3332 94.5366C28.3597 94.4181 26.4893 93.7157 24.9584 92.518C23.4276 91.3203 22.3051 89.6812 21.7329 87.8079C21.1608 85.9346 21.1646 83.9113 21.7439 81.9938C22.3233 80.0764 23.4521 78.3509 24.9877 77.0355" stroke="#F6F6F6" stroke-width="8"/>
<path d="M41.6838 80.935C40.006 82.3722 37.4887 82.1704 36.0613 80.4844C34.6338 78.7983 34.8368 76.2665 36.5146 74.8294L41.6838 80.935ZM36.5146 74.8294L45.2104 67.3809L50.3796 73.4865L41.6838 80.935L36.5146 74.8294Z" fill="#F6F6F6"/>
<path d="M38.5264 63.2831C53.1249 80.5261 52.5647 67.4325 63.2733 69.0661C77.67 71.2623 84.4189 62.3684 89.8372 58.0732" stroke="#F6F6F6" stroke-width="8"/>
<path d="M90.3703 57.4039C88.6659 58.8479 85.1332 59.3978 79.5927 57.0822C74.2761 54.8601 68.1866 50.3614 62.7836 43.9841C57.3807 37.6069 53.9435 30.861 52.6251 25.2517C51.2511 19.406 52.3739 16.0116 54.0783 14.5676C55.7826 13.1236 59.3153 12.5737 64.8559 14.8894C70.1725 17.1114 76.262 21.6102 81.6649 27.9874C87.0679 34.3646 90.5051 41.1105 91.8235 46.7199C93.1975 52.5656 92.0747 55.9599 90.3703 57.4039Z" stroke="#F6F6F6" stroke-width="8"/>
<path d="M77.8366 41.3185C77.7947 41.3539 77.6527 41.4493 77.2574 41.4236C76.852 41.3972 76.2882 41.2449 75.5918 40.9042C74.2032 40.2248 72.5496 38.9247 71.0268 37.1273C69.504 35.3299 68.4931 33.4851 68.0511 32.0038C67.8294 31.2609 67.7719 30.6797 67.8125 30.2755C67.852 29.8813 67.9694 29.7569 68.0113 29.7214C68.0531 29.686 68.1951 29.5906 68.5905 29.6163C68.9959 29.6427 69.5597 29.795 70.2561 30.1357C71.6446 30.815 73.2983 32.1152 74.8211 33.9126C76.3439 35.71 77.3547 37.5548 77.7967 39.0361C78.0184 39.779 78.076 40.3602 78.0354 40.7644C77.9958 41.1586 77.8784 41.283 77.8366 41.3185Z" stroke="#F6F6F6" stroke-width="3"/>
</svg>
